<svg width="48" height="48" viewBox="0 0 48 48" fill="none" xmlns="http://www.w3.org/2000/svg">
<path d="M33.8092 34.8772L26.8725 41.814C26.3405 42.3484 25.7082 42.7724 25.0119 43.0617C24.3155 43.3511 23.5689 43.5 22.8148 43.5C22.0608 43.5 21.3142 43.3511 20.6178 43.0617C19.9215 42.7724 19.2892 42.3484 18.7571 41.814L8.61274 31.67C8.07837 31.138 7.65435 30.5056 7.36503 29.8093C7.0757 29.1129 6.92676 28.3663 6.92676 27.6122C6.92676 26.8582 7.0757 26.1116 7.36503 25.4152C7.65435 24.7189 8.07837 24.0865 8.61274 23.5545L18.7571 13.41C19.2892 12.8756 19.9215 12.4516 20.6178 12.1623C21.3142 11.8729 22.0608 11.724 22.8148 11.724C23.5689 11.724 24.3155 11.8729 25.0119 12.1623C25.7082 12.4516 26.3405 12.8756 26.8725 13.41L34.5 21.0373" stroke="white" stroke-linecap="round" stroke-linejoin="round"/>
<path d="M18.7573 13.41L27.7649 4.5" stroke="white" stroke-linecap="round" stroke-linejoin="round"/>
<path d="M19.584 27.5918H41.074" stroke="white" stroke-linecap="round" stroke-linejoin="round"/>
</svg>
