<svg width="256" height="256" viewBox="0 0 256 256" fill="none" xmlns="http://www.w3.org/2000/svg">
<path d="M213.691 222.66H42.0253C19.6268 222.66 1.40674 204.44 1.40674 182.042V73.6685C1.40674 51.2728 19.6296 33.05 42.0253 33.05H213.691C236.087 33.05 254.307 51.2728 254.307 73.6685V182.042C254.307 204.44 236.087 222.66 213.691 222.66ZM42.0253 44.9279C26.1769 44.9279 13.2846 57.8201 13.2846 73.6685V182.042C13.2846 197.89 26.1769 210.785 42.0253 210.785H213.691C229.539 210.785 242.432 197.89 242.432 182.042V73.6685C242.432 57.8201 229.539 44.9279 213.691 44.9279H42.0253Z" fill="white"/>
<path d="M32.4405 74.2333C62.7998 103.817 93.159 133.398 123.518 162.982C129.178 168.495 137.863 159.829 132.196 154.304C101.836 124.723 71.4771 95.1397 41.1178 65.5589C35.4585 60.0428 26.7728 68.7117 32.4405 74.2333Z" fill="white"/>
<path d="M132.196 162.982C162.555 133.401 192.914 103.817 223.273 74.2362C228.938 68.7145 220.258 60.0428 214.596 65.5589C184.237 95.1397 153.878 124.723 123.518 154.304C117.853 159.826 126.533 168.498 132.196 162.982Z" fill="white"/>
<path d="M222.939 183.922C202.738 164.763 182.534 145.607 162.333 126.449C156.603 121.017 147.912 129.677 153.655 135.126C173.857 154.285 194.06 173.44 214.262 192.599C219.991 198.031 228.682 189.367 222.939 183.922Z" fill="white"/>
<path d="M41.9999 192.596C62.201 173.438 82.4049 154.282 102.606 135.123C108.347 129.677 99.6611 121.011 93.9287 126.446C73.7276 145.605 53.5237 164.76 33.3226 183.919C27.5818 189.365 36.2675 198.034 41.9999 192.596Z" fill="white"/>
</svg>
